<svg xmlns="http://www.w3.org/2000/svg" width="1739" height="1187" viewBox="0 0 1739 1187" version="1.1"><path d="M 782.881 230.453 C 782.632 230.702, 776.681 230.975, 769.657 231.060 C 748.540 231.316, 723.018 236.496, 695.182 246.174 C 674.767 253.273, 638.948 265.127, 603.500 276.516 C 542.234 296.201, 219.376 403.238, 189.500 413.771 C 155.804 425.650, 147.239 429.770, 140.179 437.495 C 134.080 444.168, 129.772 452.349, 126.470 463.527 C 124.096 471.566, 123.873 473.645, 124.328 483.500 C 124.607 489.550, 125.765 499.036, 126.902 504.581 C 129.741 518.426, 173.115 648.930, 191.187 698 C 199.082 719.438, 201.510 724.106, 209.017 732.287 C 218.624 742.756, 227.853 748.801, 240 752.579 C 245.292 754.225, 265.949 754.492, 274.083 753.019 C 277.062 752.480, 285.350 751.120, 292.500 749.998 C 299.650 748.875, 308.088 747.516, 311.250 746.978 C 314.413 746.440, 319.588 745.571, 322.750 745.046 C 329.549 743.918, 331.143 743.648, 349.792 740.457 C 368.420 737.271, 383.083 734.711, 407 730.472 C 424.989 727.283, 437.983 725.255, 474 720.018 C 489.975 717.695, 520.665 712.506, 530.370 710.487 C 535.041 709.515, 537.824 709.371, 539.068 710.036 C 540.073 710.574, 545.495 716.299, 551.116 722.757 C 590.799 768.353, 639.051 804.255, 682.500 820.512 C 733.779 839.699, 797.185 846.045, 848 837.076 C 861.064 834.771, 865.997 833.640, 878.875 830.001 C 916.910 819.251, 949.651 803.057, 979.174 780.392 C 983.395 777.151, 991.143 771.184, 996.392 767.131 C 1002.089 762.733, 1006.526 759.988, 1007.398 760.323 C 1008.251 760.650, 1009.134 762.885, 1009.518 765.692 C 1012.890 790.352, 1028.691 830.735, 1045.783 858.372 C 1056.669 875.976, 1068.883 890.994, 1087.444 909.601 C 1097.375 919.556, 1109.999 931.256, 1115.497 935.601 C 1137.366 952.880, 1164.330 968.965, 1187.500 978.554 C 1208.382 987.195, 1234.837 994.815, 1247 995.692 C 1258.013 996.486, 1262.352 995.003, 1269.027 988.163 C 1278.875 978.073, 1278.500 980.118, 1278.500 936.500 C 1278.500 885.600, 1281.046 890.121, 1244.172 875.542 C 1205.747 860.351, 1194.363 853.509, 1174.464 833.651 C 1167.216 826.418, 1158.521 816.747, 1155.141 812.160 C 1148.570 803.244, 1137.083 780.853, 1132.040 767.133 C 1128.538 757.607, 1124.606 739.077, 1123.055 724.789 C 1121.711 712.416, 1121.705 678.232, 1123.044 666.500 C 1126.851 633.154, 1138.498 603.556, 1158.145 577.300 C 1165.899 566.939, 1182.471 550.326, 1193 542.361 C 1203.179 534.660, 1224.067 524.140, 1243.500 516.927 C 1251.200 514.069, 1260.022 510.468, 1263.104 508.925 C 1268.984 505.980, 1277.610 497.403, 1278.581 493.535 C 1278.888 492.312, 1278.987 472.454, 1278.802 449.406 C 1278.496 411.400, 1278.294 407.105, 1276.628 403.260 C 1274.206 397.671, 1270.305 396.540, 1256.276 397.360 C 1243.972 398.080, 1237.936 399.322, 1213.757 406.109 C 1177.404 416.314, 1142.084 434.889, 1110.237 460.550 C 1103.482 465.993, 1098.923 468.984, 1097.670 468.796 C 1096.050 468.552, 1095.304 466.736, 1093.440 458.500 C 1089.567 441.388, 1076.579 406.836, 1071.159 399.223 C 1067.056 393.461, 1068.149 391.708, 1081 383.436 C 1102.622 369.519, 1114.024 349.006, 1113.985 324.090 C 1113.968 312.991, 1112.250 304.713, 1108.032 295.411 C 1101.720 281.489, 1091.156 270.069, 1077.663 262.580 C 1067.498 256.937, 1061.453 255.659, 1045 255.673 C 1028.739 255.687, 1024.068 256.875, 1010.544 264.438 C 1003.503 268.376, 989.190 281.178, 986.234 286.181 C 985.318 287.731, 983.714 289, 982.669 289 C 981.624 289, 972.609 284.341, 962.635 278.647 C 937.517 264.308, 931.409 261.150, 916.500 254.792 C 894.613 245.459, 874.278 239.281, 844.631 232.958 C 831.483 230.154, 829.530 230, 807.048 230 C 794.005 230, 783.130 230.204, 782.881 230.453 M 1035.109 284.257 C 1019.496 286.255, 1006.532 297.299, 1001.486 312.900 C 998.958 320.716, 999.803 333.594, 1003.333 341.056 C 1013.822 363.227, 1040.543 371.729, 1061.374 359.521 C 1067.524 355.917, 1074.645 347.992, 1077.820 341.218 C 1080.218 336.102, 1080.500 334.341, 1080.500 324.500 C 1080.500 314.643, 1080.220 312.902, 1077.804 307.747 C 1070.145 291.403, 1052.997 281.969, 1035.109 284.257 M 766.500 319.156 C 741.071 323.032, 719.575 329.611, 698.628 339.927 C 654.008 361.902, 620.660 395.405, 598.521 440.500 C 587.704 462.533, 580.962 484.878, 577.854 509 C 576.134 522.348, 576.406 553.071, 578.361 566.269 C 585.337 613.365, 605.321 653.796, 638.455 687.852 C 661.294 711.325, 687.395 728.560, 717.344 739.943 C 733.993 746.271, 748.333 749.739, 771 752.920 C 779.383 754.096, 810.583 754.094, 819 752.917 C 837.125 750.381, 843.165 749.114, 860 744.315 C 868.682 741.840, 884.606 735.282, 895.455 729.714 C 931.930 710.991, 963.233 681.085, 984.649 644.500 C 1000.913 616.717, 1011.086 582.637, 1012.826 550.110 C 1014.493 518.942, 1010.536 489.792, 1000.913 462.357 C 990.419 432.439, 967.442 397.268, 945.264 377.177 C 909.197 344.506, 871.691 326.513, 825.053 319.508 C 813.823 317.821, 776.720 317.598, 766.500 319.156 M 479 375.974 C 475.425 376.354, 469.800 377.441, 466.500 378.391 C 460.032 380.251, 426.007 390.970, 417 393.984 C 413.975 394.997, 406.100 397.488, 399.500 399.520 C 392.900 401.553, 381.200 405.230, 373.500 407.692 C 359.425 412.193, 323.671 423.431, 293 432.995 C 245.663 447.755, 232.942 452.467, 219.710 460.139 C 211.156 465.099, 196.605 479.243, 192.639 486.452 C 186.246 498.074, 183.862 511.749, 185.924 524.980 C 187.466 534.878, 206.405 591.636, 216.898 617.810 C 223.454 634.163, 226.579 639.551, 234.091 647.459 C 239.896 653.570, 242.385 655.388, 248.314 657.845 C 261.380 663.262, 279.354 668.503, 284.500 668.398 C 286.081 668.366, 297.919 666.942, 304.500 665.991 C 307.800 665.515, 314.100 664.620, 318.500 664.003 C 345.800 660.174, 397.293 651.916, 412 649.009 C 417.225 647.976, 423.525 646.823, 426 646.447 C 428.475 646.072, 431.400 645.585, 432.500 645.365 C 436.008 644.665, 452.424 641.798, 454.500 641.523 C 459.740 640.829, 482.272 636.486, 489 634.873 C 504.919 631.058, 514.594 626.385, 522.284 618.798 C 529.402 611.776, 532.641 604.986, 534.122 593.984 C 535.223 585.796, 535.129 582.808, 531.515 511.500 C 530.754 496.488, 530.033 479.320, 529.478 463 C 527.345 400.250, 526.740 396.917, 515.373 385.301 C 507.107 376.853, 503.003 374.965, 493.290 375.142 C 489.005 375.220, 482.575 375.595, 479 375.974 M 1336.033 398.845 C 1333.663 401.336, 1331.829 404.396, 1331.429 406.525 C 1331.064 408.472, 1330.941 427.723, 1331.155 449.307 L 1331.545 488.550 1334.285 494.149 C 1339.045 503.880, 1344.367 507.820, 1361 513.928 C 1391.563 525.152, 1401.730 530.210, 1418.594 542.580 C 1431.126 551.772, 1440.428 560.556, 1454.965 576.926 C 1462.781 585.727, 1471.183 594.257, 1473.635 595.882 C 1480.858 600.666, 1487.230 601.265, 1525.500 600.754 C 1547.825 600.456, 1560.779 599.892, 1563.225 599.110 C 1568.664 597.372, 1575.026 592.129, 1578.479 586.539 C 1581.191 582.147, 1581.500 580.818, 1581.500 573.520 C 1581.500 565.643, 1581.320 565.023, 1575.666 553.446 C 1561.304 524.039, 1549.877 507.926, 1526.515 484.141 C 1516.057 473.494, 1504.125 462.062, 1500 458.737 C 1486.971 448.234, 1460.023 431.065, 1445.500 424.014 C 1417.356 410.349, 1372.606 396.997, 1349.515 395.374 L 1339.973 394.703 1336.033 398.845 M 779 399.065 C 752.594 403.053, 731.499 411.495, 712.723 425.587 C 702.253 433.445, 687.983 448.379, 681.061 458.723 C 675.236 467.428, 667.301 483.346, 664.161 492.627 C 655.503 518.214, 655.286 550.763, 663.596 577.136 C 686.640 650.263, 766.515 690.670, 839.356 666.049 C 873.345 654.560, 902.378 629.125, 918.744 596.500 C 932.962 568.158, 936.578 532.310, 928.362 501.157 C 912.297 440.249, 856.527 397.486, 794 398.135 C 788.775 398.189, 782.025 398.608, 779 399.065 M 1356 650.908 C 1298.099 651.605, 1299.260 651.486, 1293.162 657.311 C 1288.147 662.103, 1286.330 666.526, 1284.984 677.224 C 1283.516 688.881, 1284.233 736.032, 1285.986 743.186 C 1287.668 750.049, 1293.742 756.545, 1300.319 758.515 C 1307.464 760.655, 1338.497 761.745, 1416.686 762.600 C 1451.988 762.986, 1481.387 763.621, 1482.018 764.011 C 1484.469 765.526, 1464.847 802.530, 1454.308 816.268 C 1448.390 823.983, 1429.356 843.062, 1421.983 848.670 C 1410.915 857.088, 1388.555 868.089, 1363 877.688 C 1347.251 883.603, 1342.480 886.344, 1337.933 892.084 C 1332.070 899.487, 1331.727 901.332, 1331.256 928 C 1330.552 967.816, 1332.412 978.905, 1341.320 988.016 C 1351.317 998.242, 1359.122 998.784, 1386 991.123 C 1416.142 982.532, 1428.169 978.029, 1448.233 967.826 C 1488.911 947.138, 1533.903 906.964, 1559.885 868.128 C 1577.669 841.545, 1593.468 804.759, 1600.427 773.730 C 1608.913 735.896, 1611.586 685.626, 1605.998 668.967 C 1603.528 661.603, 1600.123 656.621, 1596.198 654.628 C 1590.267 651.616, 1571.813 650.911, 1490.500 650.587 C 1445.950 650.410, 1385.425 650.554, 1356 650.908" stroke="none" fill="#262626" fill-rule="evenodd"/></svg>